# xmcd
#
# Track frame offsets: 
#        150
#        56075
#        95325
#        128548
#        180303
#        220420
#        273433
#        295063
#
# Disc length: 4177 seconds
#
# Revision: 0
# Processed by: cddbd v1.5.2PL0 Copyright (c) Steve Scherf et al.
# Submitted via: ExactAudioCopy v0.99pb5
#
DISCID=70104f08
DTITLE=Eric Clapton  - E.C. Is Here - Disc 08 (DJ Copy 70)
DYEAR=1900
DGENRE=
TTITLE0=Blues Power
TTITLE1=Key To The Highway
TTITLE2=Let It Rain
TTITLE3=Little Wing
TTITLE4=Singin' The Blues
TTITLE5=Layla
TTITLE6=Steady Rollin' Man
TTITLE7=Little Queenie
EXTD=
EXTT0=
EXTT1=
EXTT2=
EXTT3=
EXTT4=
EXTT5=
EXTT6=
EXTT7=
PLAYORDER=
